<svg xmlns="http://www.w3.org/2000/svg" width="2100" height="2100" viewBox="0 0 2100 2100" version="1.1"><path d="M 1268.349 873.905 C 1267.452 874.952, 1265.506 879.340, 1264.023 883.655 C 1262.541 887.970, 1260.805 892.767, 1260.164 894.315 C 1259.524 895.863, 1259 897.595, 1259 898.164 C 1259 898.733, 1258.373 900.616, 1257.608 902.349 C 1255.875 906.270, 1253.209 914.220, 1251.855 919.500 C 1251.291 921.700, 1250.428 924.400, 1249.937 925.500 C 1249.446 926.600, 1247.899 931.100, 1246.499 935.500 C 1245.099 939.900, 1243.289 944.918, 1242.477 946.651 C 1241.665 948.384, 1241 950.287, 1241 950.880 C 1241 952.233, 1233.234 975.970, 1232.127 978 C 1231.677 978.825, 1230.731 981.975, 1230.024 985 C 1229.317 988.025, 1228.409 990.950, 1228.007 991.500 C 1227.605 992.050, 1225.813 997.225, 1224.025 1003 C 1222.238 1008.775, 1218.132 1021.600, 1214.902 1031.500 C 1211.671 1041.400, 1208.298 1051.750, 1207.406 1054.500 C 1206.514 1057.250, 1205.158 1060.918, 1204.392 1062.651 C 1202.420 1067.116, 1202.654 1069.486, 1205.379 1072.655 C 1207.726 1075.383, 1207.838 1075.405, 1213.629 1074.274 C 1219.185 1073.188, 1230.737 1070.032, 1234 1068.707 C 1234.825 1068.373, 1237.525 1067.608, 1240 1067.008 C 1242.475 1066.408, 1245.400 1065.525, 1246.500 1065.047 C 1247.600 1064.568, 1253.125 1062.710, 1258.778 1060.917 C 1271.051 1057.025, 1272.144 1057.402, 1269.779 1064.714 C 1268.249 1069.442, 1257.397 1096.415, 1244.517 1127.500 C 1240.871 1136.300, 1235.831 1148.675, 1233.317 1155 C 1230.803 1161.325, 1228.129 1167.918, 1227.373 1169.651 C 1226.618 1171.384, 1225.997 1173.184, 1225.994 1173.651 C 1225.990 1174.118, 1225.365 1175.694, 1224.603 1177.153 C 1223.842 1178.613, 1222.670 1181.469, 1222 1183.500 C 1221.330 1185.531, 1220.158 1188.387, 1219.397 1189.847 C 1218.635 1191.306, 1218.010 1193.087, 1218.006 1193.805 C 1218.003 1194.523, 1217.075 1197.223, 1215.945 1199.805 C 1210.182 1212.975, 1207 1221.931, 1207 1224.981 C 1207 1226.719, 1207.895 1228.756, 1209.189 1229.961 C 1213.276 1233.769, 1218.447 1232.092, 1222.882 1225.519 C 1224.597 1222.979, 1226 1220.458, 1226 1219.918 C 1226 1219.379, 1226.675 1218.678, 1227.500 1218.362 C 1228.325 1218.045, 1229 1217.354, 1229 1216.826 C 1229 1216.298, 1230.014 1214.434, 1231.253 1212.683 C 1232.491 1210.932, 1233.954 1208.736, 1234.503 1207.802 C 1235.051 1206.867, 1236.673 1204.392, 1238.106 1202.302 C 1241.038 1198.025, 1261.921 1166.396, 1263.487 1163.860 C 1264.631 1162.008, 1273.061 1149.565, 1288.120 1127.500 C 1293.750 1119.250, 1298.853 1111.552, 1299.460 1110.394 C 1300.702 1108.022, 1310.639 1092.426, 1325.500 1069.525 C 1331 1061.048, 1338.200 1049.805, 1341.500 1044.539 C 1344.800 1039.272, 1348.963 1032.974, 1350.750 1030.542 C 1352.537 1028.110, 1354 1025.833, 1354 1025.481 C 1354 1025.130, 1359.990 1015.765, 1367.312 1004.671 C 1389.381 971.230, 1390.989 968.428, 1390.996 963.405 C 1391.003 957.870, 1388.353 956.601, 1378.388 957.367 C 1373.643 957.732, 1369.252 958.354, 1368.630 958.750 C 1368.009 959.146, 1364.125 960.224, 1360 961.145 C 1355.875 962.066, 1349.800 963.565, 1346.500 964.476 C 1335.350 967.554, 1325 969.787, 1325 969.114 C 1325 968.746, 1325.600 967.557, 1326.334 966.473 C 1327.068 965.388, 1328.255 962.351, 1328.971 959.724 C 1329.688 957.098, 1330.663 954.709, 1331.137 954.415 C 1331.612 954.122, 1332 953.189, 1332 952.342 C 1332 951.495, 1332.655 949.384, 1333.455 947.651 C 1334.256 945.918, 1335.566 942.700, 1336.366 940.500 C 1338.306 935.170, 1344.046 920.011, 1345.075 917.500 C 1347.733 911.015, 1351 902.233, 1351 901.573 C 1351 901.149, 1351.638 899.384, 1352.418 897.651 C 1356.531 888.512, 1358.084 884.327, 1358.630 880.914 C 1359.137 877.743, 1358.823 876.733, 1356.662 874.571 L 1354.091 872 1312.036 872 C 1271.919 872, 1269.905 872.088, 1268.349 873.905" stroke="none" fill="#ffd800" fill-rule="evenodd"/><path d="M 1538.609 901.062 C 1494.811 906.145, 1461.406 929.133, 1436.624 971.247 C 1413.586 1010.398, 1405.349 1060.699, 1414.597 1105.767 C 1422.031 1141.997, 1444.909 1173.420, 1474.763 1188.405 C 1505.511 1203.839, 1552.845 1203.544, 1584.500 1187.720 C 1608.989 1175.479, 1630.888 1151.870, 1644.997 1122.500 C 1650.084 1111.910, 1656.521 1094.188, 1655.611 1093.277 C 1655.313 1092.979, 1639.866 1090.789, 1621.284 1088.410 C 1602.703 1086.031, 1585.588 1083.813, 1583.250 1083.481 C 1579.792 1082.990, 1579 1083.171, 1579 1084.454 C 1579 1087.664, 1570.923 1106.270, 1566.685 1112.820 C 1561.854 1120.288, 1556.664 1124.900, 1549.330 1128.244 C 1542.220 1131.485, 1526.588 1131.461, 1519.500 1128.199 C 1498.580 1118.570, 1494.884 1091.793, 1506.544 1034.309 C 1511.212 1011.292, 1514.168 1001.256, 1519.466 990.435 C 1524.737 979.667, 1531.357 972.445, 1539.717 968.340 C 1544.838 965.825, 1546.588 965.500, 1555 965.500 C 1563.441 965.500, 1565.153 965.821, 1570.361 968.378 C 1576.728 971.504, 1581.106 976.627, 1584.249 984.627 C 1586.494 990.343, 1589 1004.648, 1589 1011.747 L 1589 1017.233 1595.250 1016.626 C 1598.688 1016.292, 1614.550 1015.114, 1630.500 1014.007 C 1646.450 1012.900, 1661.917 1011.731, 1664.872 1011.410 L 1670.243 1010.826 1669.575 1002.663 C 1667.619 978.763, 1660.424 958.069, 1648.604 942.349 C 1641.622 933.063, 1628.375 921.112, 1618.719 915.387 C 1598.050 903.134, 1567.633 897.695, 1538.609 901.062 M 307 902.662 C 281.286 905.178, 261.584 911.385, 246.381 921.761 C 238.926 926.850, 227.412 938.741, 222.503 946.422 C 212.786 961.627, 208.724 976.026, 208.800 995 C 208.879 1014.831, 212.951 1027.065, 224.299 1041.568 C 236.143 1056.705, 247.305 1062.582, 302.865 1082.932 C 333.089 1094.003, 333.284 1094.089, 337.769 1098.335 C 344.073 1104.302, 344.086 1113.415, 337.803 1120.572 C 332.065 1127.107, 322.802 1130.033, 308.066 1129.965 C 284.916 1129.858, 266.706 1121.097, 259.297 1106.500 C 257.901 1103.750, 256.674 1101.398, 256.571 1101.274 C 256.467 1101.150, 238.070 1104.637, 215.688 1109.024 C 193.306 1113.411, 174.790 1117, 174.541 1117 C 173.597 1117, 177.186 1125.612, 181.696 1134.164 C 192.325 1154.323, 207.559 1168.808, 229.849 1179.949 C 261.664 1195.850, 307.344 1201.175, 345.755 1193.460 C 388.837 1184.806, 421.339 1157.023, 431.108 1120.500 C 434.002 1109.681, 434.333 1087.585, 431.745 1078 C 428.675 1066.631, 422.530 1055.564, 414.724 1047.346 C 399.218 1031.023, 388.792 1025.368, 348.500 1011.429 C 315.964 1000.173, 307.453 996.515, 303.860 992.245 C 296.610 983.629, 301.210 969.883, 312.592 966.151 C 319.260 963.966, 332.676 963.601, 340.314 965.398 C 354.681 968.778, 367.050 977.730, 370.200 987.027 C 371.186 989.938, 372.267 991.455, 373.296 991.371 C 374.166 991.301, 390.672 987.251, 409.975 982.371 L 445.073 973.500 444.511 971 C 443.313 965.676, 435.649 951.690, 430.111 944.721 C 408.154 917.090, 369.182 901.607, 323 902.168 C 316.125 902.252, 308.925 902.474, 307 902.662 M 478 907.560 C 478 908.477, 468.037 968.305, 467.477 970.750 L 466.962 973 497.481 973 C 514.266 973, 527.998 973.337, 527.996 973.750 C 527.990 974.835, 492.117 1188.067, 491.489 1190.750 L 490.962 1193 532.462 1193 L 573.962 1193 574.478 1190.750 C 575.077 1188.135, 611 974.582, 611 973.635 C 611 973.286, 625.166 973, 642.481 973 L 673.962 973 674.477 970.750 C 675.037 968.305, 685 908.477, 685 907.560 C 685 907.252, 638.425 907, 581.500 907 C 524.575 907, 478 907.252, 478 907.560 M 774.080 911.250 C 773.063 913.587, 744.006 976.475, 709.510 1051 C 675.013 1125.525, 646.156 1187.963, 645.381 1189.750 L 643.973 1193 679.345 1193 L 714.716 1193 728.108 1163.514 L 741.500 1134.029 779.750 1134.014 C 800.788 1134.006, 818 1134.122, 818 1134.272 C 818 1134.422, 819.797 1147.584, 821.993 1163.522 C 824.189 1179.460, 825.989 1192.612, 825.993 1192.750 C 825.997 1192.888, 844.900 1193, 868 1193 C 901.223 1193, 910 1192.735, 910 1191.734 C 910 1191.037, 900.100 1126.909, 888 1049.227 C 875.900 971.545, 866 907.765, 866 907.493 C 866 907.222, 845.734 907, 820.964 907 L 775.929 907 774.080 911.250 M 963 907.560 C 963 908.477, 953.037 968.305, 952.477 970.750 L 951.962 973 982.481 973 C 999.266 973, 1012.998 973.337, 1012.996 973.750 C 1012.990 974.835, 977.117 1188.067, 976.489 1190.750 L 975.962 1193 1017.462 1193 L 1058.962 1193 1059.478 1190.750 C 1060.077 1188.135, 1096 974.582, 1096 973.635 C 1096 973.286, 1110.166 973, 1127.481 973 L 1158.962 973 1159.477 970.750 C 1160.037 968.305, 1170 908.477, 1170 907.560 C 1170 907.252, 1123.425 907, 1066.500 907 C 1009.575 907, 963 907.252, 963 907.560 M 1781.080 911.250 C 1780.063 913.587, 1751.006 976.475, 1716.510 1051 C 1682.013 1125.525, 1653.156 1187.963, 1652.381 1189.750 L 1650.973 1193 1686.345 1193 L 1721.716 1193 1735.108 1163.514 L 1748.500 1134.029 1786.750 1134.014 C 1807.787 1134.006, 1825 1134.122, 1825 1134.272 C 1825 1134.422, 1826.797 1147.584, 1828.993 1163.522 C 1831.189 1179.460, 1832.989 1192.612, 1832.993 1192.750 C 1832.997 1192.888, 1851.900 1193, 1875 1193 C 1908.223 1193, 1917 1192.735, 1917 1191.734 C 1917 1191.037, 1907.100 1126.909, 1895 1049.227 C 1882.900 971.545, 1873 907.765, 1873 907.493 C 1873 907.222, 1852.734 907, 1827.964 907 L 1782.929 907 1781.080 911.250 M 798.663 999 C 797.156 1002.025, 788.807 1020.250, 780.110 1039.500 L 764.297 1074.500 788.297 1074.768 C 801.497 1074.916, 812.401 1074.916, 812.528 1074.768 C 812.719 1074.546, 802.828 1001.836, 801.745 995.500 C 801.492 994.026, 800.683 994.946, 798.663 999 M 1805.663 999 C 1804.156 1002.025, 1795.807 1020.250, 1787.110 1039.500 L 1771.297 1074.500 1795.297 1074.768 C 1808.497 1074.916, 1819.401 1074.916, 1819.528 1074.768 C 1819.719 1074.546, 1809.828 1001.836, 1808.745 995.500 C 1808.492 994.026, 1807.683 994.946, 1805.663 999" stroke="none" fill="#fefefe" fill-rule="evenodd"/><path d="M -0 1050 L -0 2100.001 1050.250 2099.750 L 2100.500 2099.500 2100.750 1049.750 L 2101.001 0 1050.500 0 L 0 0 -0 1050 M 0.498 1050.500 C 0.498 1628, 0.611 1864.100, 0.750 1575.167 C 0.889 1286.234, 0.889 813.734, 0.750 525.167 C 0.611 236.600, 0.498 473, 0.498 1050.500 M 1268.349 873.905 C 1267.452 874.952, 1265.506 879.340, 1264.023 883.655 C 1262.541 887.970, 1260.805 892.767, 1260.164 894.315 C 1259.524 895.863, 1259 897.595, 1259 898.164 C 1259 898.733, 1258.373 900.616, 1257.608 902.349 C 1255.875 906.270, 1253.209 914.220, 1251.855 919.500 C 1251.291 921.700, 1250.428 924.400, 1249.937 925.500 C 1249.446 926.600, 1247.899 931.100, 1246.499 935.500 C 1245.099 939.900, 1243.289 944.918, 1242.477 946.651 C 1241.665 948.384, 1241 950.287, 1241 950.880 C 1241 952.233, 1233.234 975.970, 1232.127 978 C 1231.677 978.825, 1230.731 981.975, 1230.024 985 C 1229.317 988.025, 1228.409 990.950, 1228.007 991.500 C 1227.605 992.050, 1225.813 997.225, 1224.025 1003 C 1222.238 1008.775, 1218.132 1021.600, 1214.902 1031.500 C 1211.671 1041.400, 1208.298 1051.750, 1207.406 1054.500 C 1206.514 1057.250, 1205.158 1060.918, 1204.392 1062.651 C 1202.420 1067.116, 1202.654 1069.486, 1205.379 1072.655 C 1207.726 1075.383, 1207.838 1075.405, 1213.629 1074.274 C 1219.185 1073.188, 1230.737 1070.032, 1234 1068.707 C 1234.825 1068.373, 1237.525 1067.608, 1240 1067.008 C 1242.475 1066.408, 1245.400 1065.525, 1246.500 1065.047 C 1247.600 1064.568, 1253.125 1062.710, 1258.778 1060.917 C 1271.051 1057.025, 1272.144 1057.402, 1269.779 1064.714 C 1268.249 1069.442, 1257.397 1096.415, 1244.517 1127.500 C 1240.871 1136.300, 1235.831 1148.675, 1233.317 1155 C 1230.803 1161.325, 1228.129 1167.918, 1227.373 1169.651 C 1226.618 1171.384, 1225.997 1173.184, 1225.994 1173.651 C 1225.990 1174.118, 1225.365 1175.694, 1224.603 1177.153 C 1223.842 1178.613, 1222.670 1181.469, 1222 1183.500 C 1221.330 1185.531, 1220.158 1188.387, 1219.397 1189.847 C 1218.635 1191.306, 1218.010 1193.087, 1218.006 1193.805 C 1218.003 1194.523, 1217.075 1197.223, 1215.945 1199.805 C 1210.182 1212.975, 1207 1221.931, 1207 1224.981 C 1207 1226.719, 1207.895 1228.756, 1209.189 1229.961 C 1213.276 1233.769, 1218.447 1232.092, 1222.882 1225.519 C 1224.597 1222.979, 1226 1220.458, 1226 1219.918 C 1226 1219.379, 1226.675 1218.678, 1227.500 1218.362 C 1228.325 1218.045, 1229 1217.354, 1229 1216.826 C 1229 1216.298, 1230.014 1214.434, 1231.253 1212.683 C 1232.491 1210.932, 1233.954 1208.736, 1234.503 1207.802 C 1235.051 1206.867, 1236.673 1204.392, 1238.106 1202.302 C 1241.038 1198.025, 1261.921 1166.396, 1263.487 1163.860 C 1264.631 1162.008, 1273.061 1149.565, 1288.120 1127.500 C 1293.750 1119.250, 1298.853 1111.552, 1299.460 1110.394 C 1300.702 1108.022, 1310.639 1092.426, 1325.500 1069.525 C 1331 1061.048, 1338.200 1049.805, 1341.500 1044.539 C 1344.800 1039.272, 1348.963 1032.974, 1350.750 1030.542 C 1352.537 1028.110, 1354 1025.833, 1354 1025.481 C 1354 1025.130, 1359.990 1015.765, 1367.312 1004.671 C 1389.381 971.230, 1390.989 968.428, 1390.996 963.405 C 1391.003 957.870, 1388.353 956.601, 1378.388 957.367 C 1373.643 957.732, 1369.252 958.354, 1368.630 958.750 C 1368.009 959.146, 1364.125 960.224, 1360 961.145 C 1355.875 962.066, 1349.800 963.565, 1346.500 964.476 C 1335.350 967.554, 1325 969.787, 1325 969.114 C 1325 968.746, 1325.600 967.557, 1326.334 966.473 C 1327.068 965.388, 1328.255 962.351, 1328.971 959.724 C 1329.688 957.098, 1330.663 954.709, 1331.137 954.415 C 1331.612 954.122, 1332 953.189, 1332 952.342 C 1332 951.495, 1332.655 949.384, 1333.455 947.651 C 1334.256 945.918, 1335.566 942.700, 1336.366 940.500 C 1338.306 935.170, 1344.046 920.011, 1345.075 917.500 C 1347.733 911.015, 1351 902.233, 1351 901.573 C 1351 901.149, 1351.638 899.384, 1352.418 897.651 C 1356.531 888.512, 1358.084 884.327, 1358.630 880.914 C 1359.137 877.743, 1358.823 876.733, 1356.662 874.571 L 1354.091 872 1312.036 872 C 1271.919 872, 1269.905 872.088, 1268.349 873.905 M 1539 900.682 C 1532.045 901.400, 1515.510 905.219, 1508.581 907.708 C 1480.402 917.829, 1457.251 937.477, 1439.187 966.601 C 1419.937 997.639, 1411 1029.996, 1411 1068.656 C 1411 1100.636, 1416.972 1124.520, 1430.608 1147.076 C 1446.513 1173.387, 1469.775 1190.377, 1499.310 1197.255 C 1511.948 1200.198, 1543.240 1200.429, 1555.796 1197.672 C 1573.075 1193.877, 1589.431 1186.580, 1602.173 1176.982 C 1611.662 1169.835, 1626.065 1154.242, 1633.516 1143.050 C 1643.883 1127.478, 1657.953 1095.373, 1655.405 1093.104 C 1654.486 1092.286, 1580.076 1082.519, 1579.599 1083.154 C 1579.456 1083.344, 1578.096 1087.100, 1576.575 1091.500 C 1570.439 1109.260, 1561.283 1122.264, 1551.620 1126.942 C 1544.586 1130.347, 1535.229 1131.540, 1527.037 1130.076 C 1514.441 1127.825, 1506.899 1120.842, 1502.721 1107.560 C 1500.806 1101.473, 1500.510 1098.364, 1500.575 1085 C 1500.661 1067.255, 1502.314 1054.807, 1508.106 1028.288 C 1514.515 998.945, 1519.186 987.234, 1528.489 977.185 C 1536.088 968.977, 1543.638 965.601, 1554.500 965.552 C 1576.340 965.455, 1586.335 977.902, 1588.610 1008.028 C 1589.022 1013.490, 1589.720 1017.007, 1590.393 1017.019 C 1593.305 1017.069, 1665.785 1011.826, 1667.750 1011.423 C 1669.702 1011.023, 1669.999 1010.336, 1669.994 1006.231 C 1669.986 999.596, 1667.458 983.884, 1664.980 975.067 C 1654.053 936.181, 1620.971 907.770, 1579.303 901.489 C 1570.468 900.158, 1548.362 899.715, 1539 900.682 M 300.675 902.996 C 258.735 908.238, 231.308 925.922, 216.439 957.309 C 210.668 969.490, 208.743 978.597, 208.685 994 C 208.607 1014.431, 212.183 1026.018, 222.962 1040.256 C 235.328 1056.592, 246.641 1062.607, 305.500 1084.145 C 320.350 1089.578, 333.625 1094.848, 335 1095.854 C 336.375 1096.860, 338.552 1099.218, 339.839 1101.092 C 343.257 1106.075, 342.577 1114.484, 338.331 1119.730 C 332.183 1127.325, 319.401 1130.837, 302.666 1129.528 C 280.852 1127.821, 266.525 1120.191, 259.350 1106.459 C 257.782 1103.459, 256.275 1101.005, 256 1101.006 C 254.168 1101.010, 174.855 1116.812, 174.404 1117.263 C 173.380 1118.287, 180.694 1133.725, 186.215 1142.189 C 205.496 1171.753, 237.932 1189.645, 283 1195.577 C 299.421 1197.738, 329.908 1197.012, 344.102 1194.122 C 389.805 1184.818, 421.313 1157.914, 431.597 1119.416 C 433.023 1114.079, 433.440 1108.961, 433.424 1097 C 433.406 1082.885, 433.165 1080.785, 430.728 1073.500 C 426.991 1062.330, 421.747 1053.939, 412.974 1045.091 C 398.312 1030.302, 388.037 1024.913, 348 1011.012 C 304.170 995.794, 301 993.852, 301 982.220 C 301 972.594, 306.391 967.296, 318.434 965.088 C 326.318 963.642, 331.094 963.738, 339.500 965.511 C 353.890 968.545, 364.960 976.303, 369.712 986.682 C 371.525 990.643, 372.683 992.057, 373.863 991.754 C 374.763 991.524, 391.137 987.361, 410.250 982.505 C 434.669 976.300, 445 973.268, 445 972.307 C 445 969.412, 439.571 958.149, 434.448 950.414 C 419.398 927.695, 390.694 910.581, 357.259 904.392 C 347.167 902.524, 311.492 901.644, 300.675 902.996 M 477.671 909.250 C 477.083 911.679, 467 971.310, 467 972.364 C 467 972.714, 480.761 973, 497.579 973 L 528.159 973 527.587 975.750 C 527.272 977.263, 519.126 1025.525, 509.483 1083 C 499.841 1140.475, 491.702 1188.737, 491.396 1190.250 L 490.841 1193 532.671 1192.997 L 574.500 1192.994 592.961 1082.997 L 611.423 973 643 973 L 674.577 973 679.305 943.750 C 681.906 927.663, 684.310 912.813, 684.648 910.750 L 685.262 907 581.739 907 L 478.217 907 477.671 909.250 M 775.144 908.750 C 774.058 910.803, 644.993 1189.898, 644.267 1191.763 C 643.876 1192.768, 651.046 1192.972, 679.470 1192.763 L 715.164 1192.500 728.406 1163.500 L 741.648 1134.500 779.675 1134.238 L 817.703 1133.977 820.885 1157.238 C 822.635 1170.032, 824.334 1182.816, 824.660 1185.647 C 824.987 1188.477, 825.564 1191.295, 825.943 1191.908 C 826.436 1192.705, 838.569 1192.948, 868.595 1192.761 L 910.559 1192.500 888.325 1050 C 876.096 971.625, 866.070 907.388, 866.045 907.250 C 866.020 907.112, 845.766 907, 821.035 907 C 779.231 907, 776.005 907.123, 775.144 908.750 M 962.671 909.250 C 962.083 911.679, 952 971.310, 952 972.364 C 952 972.714, 965.761 973, 982.579 973 L 1013.159 973 1012.587 975.750 C 1012.272 977.263, 1004.126 1025.525, 994.483 1083 C 984.841 1140.475, 976.702 1188.737, 976.396 1190.250 L 975.841 1193 1017.671 1192.997 L 1059.500 1192.994 1077.961 1082.997 L 1096.423 973 1128 973 L 1159.577 973 1164.305 943.750 C 1166.906 927.663, 1169.310 912.813, 1169.648 910.750 L 1170.262 907 1066.739 907 L 963.217 907 962.671 909.250 M 1782.144 908.750 C 1781.058 910.803, 1651.993 1189.898, 1651.267 1191.763 C 1650.876 1192.768, 1658.046 1192.972, 1686.470 1192.763 L 1722.164 1192.500 1735.406 1163.500 L 1748.648 1134.500 1786.675 1134.238 L 1824.703 1133.977 1827.885 1157.238 C 1829.635 1170.032, 1831.334 1182.816, 1831.660 1185.647 C 1831.987 1188.477, 1832.564 1191.295, 1832.943 1191.908 C 1833.436 1192.705, 1845.569 1192.948, 1875.595 1192.761 L 1917.559 1192.500 1895.325 1050 C 1883.096 971.625, 1873.070 907.388, 1873.045 907.250 C 1873.020 907.112, 1852.766 907, 1828.035 907 C 1786.231 907, 1783.005 907.123, 1782.144 908.750 M 782.357 1035.013 L 764.214 1075 788.107 1075 C 810.189 1075, 812.001 1074.867, 812.017 1073.250 C 812.051 1069.809, 801.541 995, 801.026 995.013 C 800.737 995.020, 792.336 1013.020, 782.357 1035.013 M 1789.357 1035.013 L 1771.214 1075 1795.107 1075 C 1817.189 1075, 1819.001 1074.867, 1819.017 1073.250 C 1819.051 1069.809, 1808.541 995, 1808.026 995.013 C 1807.737 995.020, 1799.336 1013.020, 1789.357 1035.013" stroke="none" fill="#040404" fill-rule="evenodd"/></svg>