<svg xmlns="http://www.w3.org/2000/svg" width="2100" height="2100" viewBox="0 0 2100 2100" version="1.1"><path d="M -0 1050 L -0 2100.001 1050.250 2099.750 L 2100.500 2099.500 2100.750 1049.750 L 2101.001 0 1050.500 0 L 0 0 -0 1050 M 0.498 1050.500 C 0.498 1628, 0.611 1864.100, 0.750 1575.167 C 0.889 1286.234, 0.889 813.734, 0.750 525.167 C 0.611 236.600, 0.498 473, 0.498 1050.500 M 1268.349 873.905 C 1267.452 874.952, 1265.506 879.340, 1264.023 883.655 C 1262.541 887.970, 1260.805 892.767, 1260.164 894.315 C 1259.524 895.863, 1258.997 897.663, 1258.994 898.315 C 1258.990 898.967, 1258.358 900.707, 1257.588 902.183 C 1256.818 903.658, 1255.861 906.356, 1255.461 908.179 C 1255.061 910.001, 1254.148 912.844, 1253.433 914.496 C 1252.719 916.148, 1250.222 923.570, 1247.884 930.988 C 1245.547 938.407, 1243.044 945.607, 1242.323 946.988 C 1241.602 948.370, 1241.010 950.053, 1241.006 950.728 C 1240.999 952.199, 1233.297 975.855, 1232.127 978 C 1231.677 978.825, 1230.731 981.975, 1230.024 985 C 1229.317 988.025, 1228.423 990.950, 1228.038 991.500 C 1227.256 992.618, 1223.531 1003.887, 1219.443 1017.500 C 1217.957 1022.450, 1214.748 1032.350, 1212.312 1039.500 C 1209.876 1046.650, 1207.430 1054.075, 1206.877 1056 C 1206.324 1057.925, 1205.226 1060.918, 1204.436 1062.651 C 1202.415 1067.085, 1202.640 1069.470, 1205.379 1072.655 C 1207.726 1075.383, 1207.838 1075.405, 1213.629 1074.274 C 1219.185 1073.188, 1230.737 1070.032, 1234 1068.707 C 1234.825 1068.373, 1237.525 1067.608, 1240 1067.008 C 1242.475 1066.408, 1245.400 1065.534, 1246.500 1065.066 C 1247.600 1064.598, 1253.130 1062.744, 1258.789 1060.947 C 1271.055 1057.050, 1272.138 1057.421, 1269.779 1064.714 C 1268.193 1069.615, 1256.376 1098.968, 1244.502 1127.500 C 1240.839 1136.300, 1235.796 1148.675, 1233.295 1155 C 1230.793 1161.325, 1228.129 1167.918, 1227.373 1169.651 C 1226.618 1171.384, 1225.997 1173.184, 1225.994 1173.651 C 1225.990 1174.118, 1225.365 1175.694, 1224.603 1177.153 C 1223.842 1178.613, 1222.670 1181.469, 1222 1183.500 C 1221.330 1185.531, 1220.158 1188.387, 1219.397 1189.847 C 1218.635 1191.306, 1218.010 1193.005, 1218.006 1193.623 C 1218.003 1194.240, 1217.071 1196.940, 1215.935 1199.623 C 1209.683 1214.393, 1207 1222.018, 1207 1225.020 C 1207 1230.479, 1211.669 1233.217, 1217.317 1231.070 C 1219.637 1230.188, 1226 1222.016, 1226 1219.918 C 1226 1219.379, 1226.675 1218.678, 1227.500 1218.362 C 1228.325 1218.045, 1229 1217.354, 1229 1216.826 C 1229 1216.298, 1230.014 1214.434, 1231.253 1212.683 C 1232.491 1210.932, 1233.954 1208.736, 1234.503 1207.802 C 1235.051 1206.867, 1236.673 1204.392, 1238.106 1202.302 C 1241.038 1198.025, 1261.921 1166.396, 1263.487 1163.860 C 1264.631 1162.008, 1273.061 1149.565, 1288.120 1127.500 C 1293.750 1119.250, 1298.853 1111.552, 1299.460 1110.394 C 1300.702 1108.022, 1310.639 1092.426, 1325.500 1069.525 C 1331 1061.048, 1338.200 1049.805, 1341.500 1044.539 C 1344.800 1039.272, 1348.963 1032.974, 1350.750 1030.542 C 1352.537 1028.110, 1354 1025.833, 1354 1025.481 C 1354 1025.130, 1359.990 1015.765, 1367.312 1004.671 C 1389.381 971.230, 1390.989 968.428, 1390.996 963.405 C 1391.003 957.870, 1388.353 956.601, 1378.388 957.367 C 1373.643 957.732, 1369.252 958.354, 1368.630 958.750 C 1368.009 959.146, 1364.125 960.224, 1360 961.145 C 1355.875 962.066, 1349.800 963.565, 1346.500 964.476 C 1343.200 965.387, 1337.048 966.946, 1332.830 967.940 C 1325.863 969.582, 1325.212 969.599, 1325.735 968.124 C 1326.052 967.231, 1326.621 966.050, 1327 965.500 C 1327.379 964.950, 1328.271 962.351, 1328.982 959.724 C 1329.693 957.098, 1330.663 954.709, 1331.137 954.415 C 1331.612 954.122, 1332.015 953.121, 1332.034 952.191 C 1332.053 951.261, 1332.937 948.700, 1334 946.500 C 1335.063 944.300, 1335.947 941.813, 1335.966 940.973 C 1335.985 940.132, 1336.603 938.557, 1337.339 937.473 C 1338.076 936.388, 1339.923 931.900, 1341.443 927.500 C 1342.963 923.100, 1344.586 918.600, 1345.051 917.500 C 1347.279 912.221, 1351 902.259, 1351 901.573 C 1351 901.149, 1351.638 899.384, 1352.418 897.651 C 1356.531 888.512, 1358.084 884.327, 1358.630 880.914 C 1359.137 877.743, 1358.823 876.733, 1356.662 874.571 L 1354.091 872 1312.036 872 C 1271.919 872, 1269.905 872.088, 1268.349 873.905 M 1540 900.695 C 1531.767 901.577, 1519.337 904.275, 1511.076 906.975 C 1492.123 913.169, 1477.169 922.585, 1461.973 937.895 C 1437.365 962.687, 1420.234 996.813, 1413.476 1034.500 C 1411.246 1046.937, 1410.422 1076.849, 1411.948 1089.971 C 1417.990 1141.935, 1447.193 1181.031, 1489.996 1194.458 C 1512.698 1201.579, 1541.500 1201.781, 1566 1194.990 C 1598.427 1186.003, 1627.989 1158.704, 1645.582 1121.500 C 1651.654 1108.661, 1656.609 1093.994, 1655.175 1093.108 C 1654.547 1092.720, 1638.839 1090.484, 1620.267 1088.138 C 1601.695 1085.793, 1584.908 1083.635, 1582.962 1083.343 L 1579.424 1082.812 1577.611 1088.656 C 1574.870 1097.490, 1568.420 1110.762, 1564.064 1116.531 C 1556.603 1126.413, 1543.966 1131.787, 1530.782 1130.684 C 1509.997 1128.945, 1500.014 1114.445, 1500.016 1086 C 1500.018 1060.383, 1510.459 1008.927, 1519.374 990.602 C 1525.401 978.212, 1533.762 970.081, 1543.596 967.043 C 1554.710 963.610, 1565.539 964.796, 1573.682 970.336 C 1582.067 976.041, 1587.341 989.198, 1588.638 1007.644 C 1588.999 1012.790, 1589.737 1017, 1590.277 1017 C 1593.086 1017, 1662.126 1011.908, 1665.750 1011.434 C 1669.986 1010.879, 1670 1010.864, 1669.994 1006.689 C 1669.986 1000.935, 1667.341 983.868, 1665.321 976.541 C 1655.959 942.571, 1629.007 915.042, 1595.371 905.096 C 1581.045 900.859, 1556.605 898.917, 1540 900.695 M 300.708 903.110 C 286.152 904.708, 269.806 909.363, 257.387 915.449 C 248.128 919.986, 244.723 922.334, 237.523 929.150 C 219.951 945.783, 211.715 961.760, 209.003 984.474 C 204.980 1018.167, 220.177 1047.164, 249.500 1061.748 C 257.888 1065.920, 281.879 1075.462, 305.500 1084.021 C 331.386 1093.401, 335.025 1095.052, 338.246 1098.881 C 346.775 1109.017, 341.503 1122.367, 326.931 1127.531 C 319.902 1130.022, 305.024 1130.497, 294 1128.583 C 277.289 1125.680, 265.440 1118.115, 259.350 1106.459 C 257.782 1103.459, 256.275 1101.009, 256 1101.014 C 254.292 1101.044, 174.643 1117.023, 174.253 1117.414 C 173.145 1118.522, 185.151 1141.131, 190.852 1148.671 C 215.337 1181.055, 261.357 1198.659, 316.452 1196.717 C 359.674 1195.193, 392.641 1180.891, 413.928 1154.429 C 436.872 1125.908, 440.532 1083.732, 422.429 1056.460 C 414.590 1044.649, 398.793 1031.581, 383.799 1024.502 C 379.784 1022.607, 363.450 1016.506, 347.500 1010.944 C 316.102 999.996, 307.720 996.459, 304.144 992.653 C 299.734 987.959, 299.429 978.573, 303.484 972.383 C 307.618 966.075, 323.673 962.583, 337.680 964.946 C 352.294 967.411, 363.928 975.046, 369.110 985.572 C 370.875 989.158, 372.810 991.923, 373.410 991.718 C 374.009 991.512, 390.363 987.355, 409.750 982.479 C 435.219 976.074, 445 973.223, 445 972.204 C 445 970.060, 437.602 954.735, 434.131 949.690 C 418.669 927.217, 390.111 910.645, 356.013 904.358 C 345.720 902.460, 313.295 901.729, 300.708 903.110 M 477.594 909.750 C 477.283 911.263, 474.991 924.875, 472.500 940 C 470.009 955.125, 467.717 968.737, 467.406 970.250 L 466.841 973 497.421 973 C 514.239 973, 528 973.152, 528 973.339 C 528 974.057, 491.991 1187.650, 491.430 1190.261 L 490.836 1193.022 532.602 1192.761 L 574.367 1192.500 584.635 1131.500 C 590.283 1097.950, 598.604 1048.569, 603.127 1021.764 L 611.351 973.028 642.903 972.764 L 674.455 972.500 679.099 944.348 C 681.654 928.865, 684.054 914.128, 684.433 911.598 L 685.123 907 581.641 907 L 478.159 907 477.594 909.750 M 773.539 912.250 C 772.246 915.138, 742.755 978.925, 708.004 1054 C 673.254 1129.075, 644.586 1191.068, 644.299 1191.763 C 643.882 1192.769, 651.023 1192.972, 679.417 1192.763 L 715.058 1192.500 728.286 1163.500 L 741.514 1134.500 779.757 1134.238 C 800.791 1134.094, 818 1134.339, 818 1134.782 C 818 1135.875, 824.818 1185.672, 825.526 1189.750 L 826.091 1193 868.045 1193 C 906.197 1193, 910 1192.852, 910 1191.366 C 910 1189.776, 867.485 915.226, 866.391 909.750 L 865.841 907 820.866 907 L 775.890 907 773.539 912.250 M 962.594 909.750 C 962.283 911.263, 959.991 924.875, 957.500 940 C 955.009 955.125, 952.717 968.737, 952.406 970.250 L 951.841 973 982.421 973 C 999.239 973, 1013 973.152, 1013 973.339 C 1013 974.057, 976.991 1187.650, 976.430 1190.261 L 975.836 1193.022 1017.602 1192.761 L 1059.367 1192.500 1069.635 1131.500 C 1075.283 1097.950, 1083.604 1048.569, 1088.127 1021.764 L 1096.351 973.028 1127.903 972.764 L 1159.455 972.500 1164.099 944.348 C 1166.654 928.865, 1169.054 914.128, 1169.433 911.598 L 1170.123 907 1066.641 907 L 963.159 907 962.594 909.750 M 1780.539 912.250 C 1779.246 915.138, 1749.755 978.925, 1715.004 1054 C 1680.254 1129.075, 1651.586 1191.068, 1651.299 1191.763 C 1650.882 1192.769, 1658.023 1192.972, 1686.417 1192.763 L 1722.058 1192.500 1735.286 1163.500 L 1748.514 1134.500 1786.757 1134.238 C 1807.791 1134.094, 1825 1134.339, 1825 1134.782 C 1825 1135.875, 1831.818 1185.672, 1832.526 1189.750 L 1833.091 1193 1875.045 1193 C 1913.197 1193, 1917 1192.852, 1917 1191.366 C 1917 1189.776, 1874.485 915.226, 1873.391 909.750 L 1872.841 907 1827.866 907 L 1782.890 907 1780.539 912.250 M 797.661 1001.500 C 795.607 1005.900, 787.273 1024.125, 779.142 1042 L 764.358 1074.500 776.121 1074.780 C 782.590 1074.934, 793.451 1074.934, 800.255 1074.780 L 812.626 1074.500 807.360 1036.500 C 804.463 1015.600, 801.936 997.375, 801.744 996 C 801.463 993.984, 800.673 995.048, 797.661 1001.500 M 1804.661 1001.500 C 1802.607 1005.900, 1794.273 1024.125, 1786.142 1042 L 1771.358 1074.500 1783.121 1074.780 C 1789.590 1074.934, 1800.451 1074.934, 1807.255 1074.780 L 1819.626 1074.500 1814.360 1036.500 C 1811.463 1015.600, 1808.936 997.375, 1808.744 996 C 1808.463 993.984, 1807.673 995.048, 1804.661 1001.500" stroke="none" fill="#ffffff" fill-rule="evenodd"/><path d="M 1268.349 873.905 C 1267.452 874.952, 1265.506 879.340, 1264.023 883.655 C 1262.541 887.970, 1260.805 892.767, 1260.164 894.315 C 1259.524 895.863, 1258.997 897.663, 1258.994 898.315 C 1258.990 898.967, 1258.358 900.707, 1257.588 902.183 C 1256.818 903.658, 1255.861 906.356, 1255.461 908.179 C 1255.061 910.001, 1254.148 912.844, 1253.433 914.496 C 1252.719 916.148, 1250.222 923.570, 1247.884 930.988 C 1245.547 938.407, 1243.044 945.607, 1242.323 946.988 C 1241.602 948.370, 1241.010 950.053, 1241.006 950.728 C 1240.999 952.199, 1233.297 975.855, 1232.127 978 C 1231.677 978.825, 1230.731 981.975, 1230.024 985 C 1229.317 988.025, 1228.423 990.950, 1228.038 991.500 C 1227.256 992.618, 1223.531 1003.887, 1219.443 1017.500 C 1217.957 1022.450, 1214.748 1032.350, 1212.312 1039.500 C 1209.876 1046.650, 1207.430 1054.075, 1206.877 1056 C 1206.324 1057.925, 1205.226 1060.918, 1204.436 1062.651 C 1202.415 1067.085, 1202.640 1069.470, 1205.379 1072.655 C 1207.726 1075.383, 1207.838 1075.405, 1213.629 1074.274 C 1219.185 1073.188, 1230.737 1070.032, 1234 1068.707 C 1234.825 1068.373, 1237.525 1067.608, 1240 1067.008 C 1242.475 1066.408, 1245.400 1065.534, 1246.500 1065.066 C 1247.600 1064.598, 1253.130 1062.744, 1258.789 1060.947 C 1271.055 1057.050, 1272.138 1057.421, 1269.779 1064.714 C 1268.193 1069.615, 1256.376 1098.968, 1244.502 1127.500 C 1240.839 1136.300, 1235.796 1148.675, 1233.295 1155 C 1230.793 1161.325, 1228.129 1167.918, 1227.373 1169.651 C 1226.618 1171.384, 1225.997 1173.184, 1225.994 1173.651 C 1225.990 1174.118, 1225.365 1175.694, 1224.603 1177.153 C 1223.842 1178.613, 1222.670 1181.469, 1222 1183.500 C 1221.330 1185.531, 1220.158 1188.387, 1219.397 1189.847 C 1218.635 1191.306, 1218.010 1193.005, 1218.006 1193.623 C 1218.003 1194.240, 1217.071 1196.940, 1215.935 1199.623 C 1209.683 1214.393, 1207 1222.018, 1207 1225.020 C 1207 1230.479, 1211.669 1233.217, 1217.317 1231.070 C 1219.637 1230.188, 1226 1222.016, 1226 1219.918 C 1226 1219.379, 1226.675 1218.678, 1227.500 1218.362 C 1228.325 1218.045, 1229 1217.354, 1229 1216.826 C 1229 1216.298, 1230.014 1214.434, 1231.253 1212.683 C 1232.491 1210.932, 1233.954 1208.736, 1234.503 1207.802 C 1235.051 1206.867, 1236.673 1204.392, 1238.106 1202.302 C 1241.038 1198.025, 1261.921 1166.396, 1263.487 1163.860 C 1264.631 1162.008, 1273.061 1149.565, 1288.120 1127.500 C 1293.750 1119.250, 1298.853 1111.552, 1299.460 1110.394 C 1300.702 1108.022, 1310.639 1092.426, 1325.500 1069.525 C 1331 1061.048, 1338.200 1049.805, 1341.500 1044.539 C 1344.800 1039.272, 1348.963 1032.974, 1350.750 1030.542 C 1352.537 1028.110, 1354 1025.833, 1354 1025.481 C 1354 1025.130, 1359.990 1015.765, 1367.312 1004.671 C 1389.381 971.230, 1390.989 968.428, 1390.996 963.405 C 1391.003 957.870, 1388.353 956.601, 1378.388 957.367 C 1373.643 957.732, 1369.252 958.354, 1368.630 958.750 C 1368.009 959.146, 1364.125 960.224, 1360 961.145 C 1355.875 962.066, 1349.800 963.565, 1346.500 964.476 C 1343.200 965.387, 1337.048 966.946, 1332.830 967.940 C 1325.863 969.582, 1325.212 969.599, 1325.735 968.124 C 1326.052 967.231, 1326.621 966.050, 1327 965.500 C 1327.379 964.950, 1328.271 962.351, 1328.982 959.724 C 1329.693 957.098, 1330.663 954.709, 1331.137 954.415 C 1331.612 954.122, 1332.015 953.121, 1332.034 952.191 C 1332.053 951.261, 1332.937 948.700, 1334 946.500 C 1335.063 944.300, 1335.947 941.813, 1335.966 940.973 C 1335.985 940.132, 1336.603 938.557, 1337.339 937.473 C 1338.076 936.388, 1339.923 931.900, 1341.443 927.500 C 1342.963 923.100, 1344.586 918.600, 1345.051 917.500 C 1347.279 912.221, 1351 902.259, 1351 901.573 C 1351 901.149, 1351.638 899.384, 1352.418 897.651 C 1356.531 888.512, 1358.084 884.327, 1358.630 880.914 C 1359.137 877.743, 1358.823 876.733, 1356.662 874.571 L 1354.091 872 1312.036 872 C 1271.919 872, 1269.905 872.088, 1268.349 873.905" stroke="none" fill="#ffd800" fill-rule="evenodd"/><path d="M 1543.500 900.598 C 1491.624 905.871, 1455.943 931.969, 1430.521 983.234 C 1410.388 1023.835, 1405.447 1074.416, 1417.501 1116.513 C 1426.643 1148.439, 1449.987 1176.884, 1477.466 1189.580 C 1511.267 1205.197, 1560.714 1202.505, 1592.278 1183.331 C 1612.720 1170.913, 1631.170 1149.850, 1643.811 1124.499 C 1648.610 1114.874, 1656.467 1094.134, 1655.631 1093.297 C 1655.236 1092.902, 1591.363 1084.515, 1583.604 1083.839 L 1579.707 1083.500 1577.335 1090.500 C 1568.200 1117.457, 1555.717 1129.796, 1536.563 1130.801 C 1524.307 1131.445, 1518.233 1129.393, 1511.010 1122.170 C 1506.453 1117.613, 1504.845 1115.096, 1502.912 1109.492 C 1500.675 1103.007, 1500.507 1101.122, 1500.596 1083.500 C 1500.675 1067.754, 1501.136 1062.002, 1503.287 1049.917 C 1507.063 1028.707, 1512.750 1005.747, 1516.643 996 C 1525.257 974.435, 1539.127 964.090, 1557.915 965.217 C 1571.088 966.008, 1579.653 972.150, 1584.108 984 C 1586.914 991.463, 1589 1002.821, 1589 1010.638 L 1589 1017.099 1594.750 1016.523 C 1597.912 1016.206, 1615.993 1014.828, 1634.929 1013.461 C 1653.865 1012.094, 1669.538 1010.795, 1669.759 1010.574 C 1670.735 1009.599, 1667.712 987.112, 1665.420 978.289 C 1658.060 949.964, 1640.036 926.943, 1614.642 913.434 C 1598.330 904.756, 1583.657 901.175, 1562 900.586 C 1554.025 900.369, 1545.700 900.374, 1543.500 900.598 M 304.500 903.115 C 284.827 904.962, 265.942 910.391, 252.429 918.085 C 236.874 926.941, 221.300 944.951, 214.865 961.522 C 210.645 972.391, 209 981.672, 209 994.618 C 209 1012.433, 212.310 1024.204, 220.861 1036.795 C 233.436 1055.313, 244.205 1061.275, 306.100 1083.982 C 329.672 1092.630, 333.945 1094.517, 337.240 1097.734 C 339.340 1099.785, 341.567 1103.159, 342.187 1105.231 C 344.538 1113.076, 338.658 1122.651, 328.742 1127.126 C 323.929 1129.298, 322.232 1129.487, 308 1129.427 C 293.991 1129.369, 291.724 1129.106, 284.433 1126.695 C 274.012 1123.250, 266.302 1117.701, 261.088 1109.894 C 258.840 1106.527, 257 1103.140, 257 1102.367 C 257 1101.420, 256.266 1101.134, 254.750 1101.490 C 251 1102.371, 175.557 1117, 174.766 1117 C 174.361 1117, 174.916 1119.249, 175.999 1121.998 C 186.357 1148.277, 205.646 1168.529, 232.144 1180.946 C 276.537 1201.750, 338.855 1202.199, 379.013 1182.006 C 395.594 1173.669, 412.892 1157.918, 421.410 1143.403 C 433.076 1123.522, 436.771 1097.069, 430.861 1075.740 C 427.531 1063.723, 422.584 1055.546, 412.522 1045.426 C 396.886 1029.699, 389.286 1025.709, 347.013 1011.029 C 314.799 999.842, 307.594 996.683, 303.673 992.024 C 296.809 983.866, 300.690 970.780, 311.246 966.492 C 316.891 964.200, 331.281 963.405, 339.216 964.948 C 353.118 967.652, 366.650 977.279, 370.418 987.147 L 372.185 991.772 407.842 982.777 C 427.454 977.830, 443.866 973.443, 444.314 973.028 C 444.761 972.613, 443.977 969.442, 442.571 965.982 C 424.539 921.607, 370.353 896.934, 304.500 903.115 M 473.033 938.750 C 470.111 956.212, 467.510 971.063, 467.253 971.750 C 466.886 972.733, 473.325 973, 497.393 973 C 525.895 973, 527.997 973.120, 527.950 974.750 C 527.922 975.712, 519.688 1025.100, 509.651 1084.500 L 491.401 1192.500 532.356 1192.761 C 554.881 1192.905, 573.504 1192.830, 573.740 1192.594 C 574.050 1192.284, 610.960 974.971, 610.995 973.250 C 610.998 973.112, 625.139 973, 642.421 973 L 673.841 973 674.406 970.250 C 674.717 968.737, 677.009 955.125, 679.500 940 C 681.991 924.875, 684.283 911.263, 684.594 909.750 L 685.159 907 581.752 907 L 478.345 907 473.033 938.750 M 774.577 910.750 C 772.130 915.869, 650.450 1178.926, 646.911 1186.750 L 644.084 1193 679.346 1193 L 714.609 1193 728.017 1163.500 L 741.425 1134 779.667 1134 L 817.909 1134 818.473 1137.250 C 819.138 1141.083, 825.985 1191.155, 825.994 1192.250 C 825.997 1192.662, 844.900 1193, 868 1193 C 891.100 1193, 910 1192.625, 910 1192.167 C 910 1191.709, 900.100 1127.764, 888 1050.068 C 875.900 972.372, 866 908.397, 866 907.901 C 866 907.380, 847.113 907, 821.185 907 L 776.370 907 774.577 910.750 M 958.033 938.750 C 955.111 956.212, 952.510 971.063, 952.253 971.750 C 951.886 972.733, 958.325 973, 982.393 973 C 1010.895 973, 1012.997 973.120, 1012.950 974.750 C 1012.922 975.712, 1004.688 1025.100, 994.651 1084.500 L 976.401 1192.500 1017.356 1192.761 C 1039.881 1192.905, 1058.504 1192.830, 1058.740 1192.594 C 1059.050 1192.284, 1095.960 974.971, 1095.995 973.250 C 1095.998 973.112, 1110.139 973, 1127.421 973 L 1158.841 973 1159.406 970.250 C 1159.717 968.737, 1162.009 955.125, 1164.500 940 C 1166.991 924.875, 1169.283 911.263, 1169.594 909.750 L 1170.159 907 1066.752 907 L 963.345 907 958.033 938.750 M 1781.577 910.750 C 1779.130 915.869, 1657.450 1178.926, 1653.911 1186.750 L 1651.084 1193 1686.346 1193 L 1721.609 1193 1735.017 1163.500 L 1748.425 1134 1786.667 1134 L 1824.909 1134 1825.473 1137.250 C 1826.138 1141.083, 1832.985 1191.155, 1832.994 1192.250 C 1832.997 1192.662, 1851.900 1193, 1875 1193 C 1898.100 1193, 1917 1192.625, 1917 1192.167 C 1917 1191.709, 1907.100 1127.764, 1895 1050.068 C 1882.900 972.372, 1873 908.397, 1873 907.901 C 1873 907.380, 1854.113 907, 1828.185 907 L 1783.370 907 1781.577 910.750 M 800.243 995 C 799.653 996.375, 791.276 1014.825, 781.627 1036 L 764.083 1074.500 788.190 1074.768 C 801.449 1074.916, 812.424 1074.909, 812.580 1074.753 C 812.847 1074.487, 802.396 997.218, 801.659 994 C 801.425 992.979, 800.972 993.298, 800.243 995 M 1807.243 995 C 1806.653 996.375, 1798.276 1014.825, 1788.627 1036 L 1771.083 1074.500 1795.190 1074.768 C 1808.449 1074.916, 1819.424 1074.909, 1819.580 1074.753 C 1819.847 1074.487, 1809.396 997.218, 1808.659 994 C 1808.425 992.979, 1807.972 993.298, 1807.243 995" stroke="none" fill="#040404" fill-rule="evenodd"/></svg>