<svg xmlns="http://www.w3.org/2000/svg" width="2100" height="2100" viewBox="0 0 2100 2100" version="1.1"><path d="M 1537.500 900.676 C 1535.850 900.882, 1530 901.981, 1524.500 903.117 C 1496.841 908.830, 1473.097 923.074, 1454.585 945.058 C 1437.341 965.537, 1424.556 989.842, 1417.530 1015.500 C 1408.063 1050.075, 1408.264 1091.099, 1418.045 1120.292 C 1430.432 1157.267, 1457.418 1185.278, 1490 1194.983 C 1512.966 1201.823, 1544.015 1201.773, 1567.500 1194.857 C 1605.459 1183.680, 1637.180 1149.747, 1653.500 1102.861 C 1655.986 1095.719, 1656.614 1092.807, 1655.730 1092.513 C 1654.108 1091.973, 1583.784 1083, 1581.179 1083 C 1579.576 1083, 1578.708 1084.384, 1576.941 1089.750 C 1570.340 1109.806, 1560.063 1123.606, 1548.500 1127.941 C 1540.269 1131.026, 1527.224 1131.077, 1520.383 1128.051 C 1513.082 1124.822, 1509.663 1121.732, 1506.322 1115.343 C 1498.835 1101.026, 1498.378 1082.696, 1504.609 1046.653 C 1514.983 986.657, 1528.153 965.756, 1555.568 965.780 C 1576.465 965.799, 1585.959 978.180, 1588.518 1008.750 C 1589.149 1016.292, 1589.392 1017.003, 1591.354 1017.030 C 1592.534 1017.047, 1610.713 1015.831, 1631.750 1014.329 L 1670 1011.596 1670 1005.871 C 1670 986.241, 1662.369 961.741, 1651.073 945.107 C 1635.018 921.466, 1608.233 905.199, 1578.566 901.072 C 1571.414 900.078, 1544.357 899.816, 1537.500 900.676 M 295 903.558 C 267.633 907.831, 246.342 918.028, 231.902 933.780 C 220.107 946.647, 212.392 962.077, 209.520 978.548 C 204.817 1005.513, 211.358 1029.243, 228.344 1046.841 C 240.170 1059.094, 251.630 1064.680, 304.637 1084.032 C 317.912 1088.878, 330.586 1093.769, 332.802 1094.899 C 341.178 1099.172, 344.371 1109.009, 339.942 1116.890 C 334.992 1125.697, 326.118 1129.161, 308.500 1129.163 C 294.607 1129.164, 285.789 1127.437, 276.970 1122.985 C 268.857 1118.890, 263.937 1114.236, 260.090 1107.018 C 258.326 1103.708, 256.572 1100.980, 256.191 1100.956 C 252.970 1100.749, 174.648 1116.761, 174.286 1117.699 C 174.033 1118.359, 175.857 1123.189, 178.341 1128.433 C 193.929 1161.339, 221.005 1181.891, 262.024 1191.953 C 279.031 1196.125, 292.783 1197.344, 315.735 1196.713 C 342.901 1195.967, 359.818 1192.228, 378.375 1182.871 C 404.813 1169.540, 423.031 1148.814, 430.559 1123.500 C 432.690 1116.332, 433.332 1111.752, 433.711 1101 C 434.310 1083.996, 432.763 1075.977, 426.393 1063.075 C 422.634 1055.463, 420.177 1052.078, 413.620 1045.480 C 404.911 1036.719, 393.551 1028.551, 383.643 1023.929 C 380.264 1022.353, 363.775 1016.283, 347 1010.440 C 313.527 998.783, 306.014 995.377, 302.993 990.489 C 300.589 986.599, 300.352 979.154, 302.499 975.002 C 304.530 971.074, 309.564 967.437, 315 965.971 C 320.764 964.416, 336.208 964.404, 341.875 965.951 C 354.605 969.424, 367.566 979.483, 370.067 987.828 C 370.754 990.123, 371.836 992, 372.471 992 C 373.817 992, 445.345 973.963, 445.819 973.503 C 445.995 973.334, 444.688 969.709, 442.915 965.450 C 430.478 935.576, 400.619 913.458, 361.199 904.919 C 348.166 902.096, 309.462 901.300, 295 903.558 M 477.532 908.250 C 477.037 909.777, 467 970.489, 467 971.955 C 467 972.659, 476.966 973, 497.519 973 L 528.038 973 527.499 975.250 C 526.870 977.873, 491 1191.134, 491 1192.250 C 491 1192.662, 509.818 1193, 532.818 1193 L 574.636 1193 587.959 1113.750 C 595.287 1070.162, 603.610 1020.775, 606.455 1004 L 611.629 973.500 643.169 973.236 L 674.709 972.972 679.861 941.736 C 682.694 924.556, 685.009 909.712, 685.006 908.750 C 685 907.095, 679.401 907, 581.469 907 C 499.526 907, 477.853 907.261, 477.532 908.250 M 710.282 1048.260 C 674.412 1125.942, 644.774 1190.293, 644.420 1191.263 C 643.812 1192.929, 645.744 1193.011, 679.592 1192.763 L 715.408 1192.500 728.646 1163.500 L 741.883 1134.500 779.732 1134.238 L 817.582 1133.977 821.524 1163.488 L 825.466 1193 868.170 1193 L 910.874 1193 910.353 1189.750 C 910.067 1187.963, 900.058 1123.725, 888.112 1047 L 866.391 907.500 820.946 907.260 L 775.500 907.019 710.282 1048.260 M 962.532 908.250 C 962.037 909.777, 952 970.489, 952 971.955 C 952 972.659, 961.966 973, 982.519 973 L 1013.038 973 1012.499 975.250 C 1011.870 977.873, 976 1191.134, 976 1192.250 C 976 1192.662, 994.818 1193, 1017.818 1193 L 1059.636 1193 1072.959 1113.750 C 1080.287 1070.162, 1088.610 1020.775, 1091.455 1004 L 1096.629 973.500 1128.169 973.236 L 1159.709 972.972 1164.861 941.736 C 1167.694 924.556, 1170.009 909.712, 1170.006 908.750 C 1170 907.095, 1164.401 907, 1066.469 907 C 984.526 907, 962.853 907.261, 962.532 908.250 M 1717.282 1048.260 C 1681.412 1125.942, 1651.774 1190.293, 1651.420 1191.263 C 1650.812 1192.929, 1652.744 1193.011, 1686.592 1192.763 L 1722.408 1192.500 1735.646 1163.500 L 1748.883 1134.500 1786.732 1134.238 L 1824.582 1133.977 1828.524 1163.488 L 1832.466 1193 1875.170 1193 L 1917.874 1193 1917.353 1189.750 C 1917.067 1187.963, 1907.058 1123.725, 1895.112 1047 L 1873.391 907.500 1827.946 907.260 L 1782.500 907.019 1717.282 1048.260 M 783.251 1033.750 C 773.827 1054.513, 765.817 1072.287, 765.451 1073.250 C 764.829 1074.886, 766.330 1075, 788.525 1075 L 812.263 1075 811.699 1070.750 C 806.493 1031.530, 801.381 996.001, 800.944 996.001 C 800.638 996, 792.676 1012.987, 783.251 1033.750 M 1790.251 1033.750 C 1780.827 1054.513, 1772.817 1072.287, 1772.451 1073.250 C 1771.829 1074.886, 1773.330 1075, 1795.525 1075 L 1819.263 1075 1818.699 1070.750 C 1813.493 1031.530, 1808.381 996.001, 1807.944 996.001 C 1807.638 996, 1799.676 1012.987, 1790.251 1033.750" stroke="none" fill="#040404" fill-rule="evenodd"/><path d="M 1268.366 872.874 C 1267.259 873.905, 1264.636 879.642, 1262.535 885.624 C 1260.435 891.606, 1257.384 899.650, 1255.755 903.500 C 1254.127 907.350, 1250.818 916.800, 1248.403 924.500 C 1240.236 950.543, 1228.193 986.966, 1223.604 999.500 C 1222.195 1003.350, 1220.549 1009.164, 1219.946 1012.420 C 1219.343 1015.676, 1216.146 1026.251, 1212.841 1035.920 C 1209.536 1045.589, 1206.144 1055.750, 1205.302 1058.500 C 1204.461 1061.250, 1203.374 1063.927, 1202.886 1064.450 C 1201.227 1066.228, 1201.994 1069.568, 1204.844 1072.982 L 1207.687 1076.388 1213.594 1075.118 C 1221.994 1073.310, 1231.032 1070.679, 1250.699 1064.313 C 1260.159 1061.252, 1268.579 1059.008, 1269.410 1059.327 C 1270.699 1059.822, 1270.503 1061.061, 1268.088 1067.704 C 1264.898 1076.481, 1251.536 1109.574, 1247.760 1118.049 C 1246.400 1121.101, 1244.704 1125.376, 1243.992 1127.549 C 1243.279 1129.722, 1241.029 1135.100, 1238.993 1139.500 C 1236.957 1143.900, 1234.949 1148.625, 1234.532 1150 C 1234.115 1151.375, 1232.744 1154.525, 1231.485 1157 C 1229.594 1160.717, 1227.701 1165.716, 1225.615 1172.500 C 1225.446 1173.050, 1224.788 1174.767, 1224.154 1176.315 C 1223.519 1177.863, 1223 1179.551, 1223 1180.065 C 1223 1180.579, 1222.606 1181, 1222.125 1181 C 1221.644 1181, 1220.973 1182.386, 1220.634 1184.080 C 1220.295 1185.774, 1219.400 1188.586, 1218.645 1190.330 C 1217.889 1192.073, 1216.024 1196.875, 1214.500 1201 C 1212.976 1205.125, 1211.150 1209.850, 1210.442 1211.500 C 1209.734 1213.150, 1208.845 1215.742, 1208.466 1217.259 C 1208.088 1218.777, 1207.378 1220.266, 1206.889 1220.568 C 1205.557 1221.392, 1205.879 1227.256, 1207.363 1229.211 C 1211.471 1234.617, 1218.843 1232.986, 1223.853 1225.562 C 1225.584 1222.998, 1227 1220.658, 1227 1220.363 C 1227 1219.543, 1233.397 1210.546, 1234.250 1210.167 C 1234.662 1209.983, 1235 1209.391, 1235 1208.850 C 1235 1208.309, 1236.125 1206.392, 1237.500 1204.589 C 1238.875 1202.786, 1240 1201.034, 1240 1200.694 C 1240 1200.127, 1255.780 1176.498, 1265.420 1162.631 C 1267.664 1159.403, 1270.850 1154.647, 1272.500 1152.063 C 1274.150 1149.478, 1277.525 1144.543, 1280 1141.096 C 1282.475 1137.648, 1286.750 1131.320, 1289.500 1127.033 C 1304.064 1104.329, 1310.550 1094.290, 1321.050 1078.200 C 1327.403 1068.465, 1334.125 1057.800, 1335.989 1054.500 C 1337.853 1051.200, 1340.659 1046.700, 1342.224 1044.500 C 1343.790 1042.300, 1346.785 1037.800, 1348.881 1034.500 C 1357.987 1020.158, 1374.455 995.334, 1376.078 993.500 C 1377.728 991.635, 1380.950 986.242, 1388.261 973.105 C 1391.860 966.639, 1392.316 961.112, 1389.508 958.008 C 1387.800 956.121, 1386.794 955.912, 1381.527 956.349 C 1374.859 956.901, 1360.703 959.271, 1354.500 960.874 C 1346.329 962.985, 1341.486 964.482, 1341 965.046 C 1340.128 966.059, 1329.005 967.697, 1328.889 966.830 C 1328.430 963.403, 1329.065 960.844, 1331.951 954.500 C 1332.451 953.400, 1333.391 950.769, 1334.040 948.653 C 1334.688 946.538, 1335.842 943.613, 1336.603 942.153 C 1337.365 940.694, 1337.990 939.138, 1337.994 938.695 C 1338 937.875, 1341.407 929.724, 1342.882 927 C 1343.329 926.175, 1344.298 923.138, 1345.036 920.250 C 1345.774 917.362, 1346.693 915, 1347.078 915 C 1347.463 915, 1348.073 913.425, 1348.434 911.500 C 1348.795 909.575, 1349.448 908, 1349.886 908 C 1350.323 908, 1351.271 905.541, 1351.992 902.535 C 1352.713 899.529, 1353.721 897.328, 1354.233 897.644 C 1354.744 897.960, 1355.057 897.382, 1354.928 896.359 C 1354.798 895.337, 1354.969 893.825, 1355.306 893 C 1357.727 887.084, 1359.999 880.236, 1359.999 878.856 C 1360 877.951, 1358.694 875.814, 1357.099 874.106 L 1354.198 871 1312.287 871 C 1272.699 871, 1270.266 871.104, 1268.366 872.874" stroke="none" fill="#fcdb04" fill-rule="evenodd"/></svg>